Coordinates
version=1
nRows=24
nColumns=22
inDegrees=yes

Units are S.I. units (second, meters, Newtons, ...)
If the header above contains a line with 'inDegrees', this indicates whether rotational values are in degrees (yes) or radians (no).

endheader
time	pelvis_tilt	pelvis_list	pelvis_rotation	pelvis_tx	pelvis_ty	pelvis_tz	hip_flexion_r	hip_adduction_r	hip_rotation_r	knee_angle_r	ankle_angle_r	subtalar_angle_r	hip_flexion_l	hip_adduction_l	hip_rotation_l	knee_angle_l	ankle_angle_l	subtalar_angle_l	lumbar_extension	lumbar_bending	lumbar_rotation
      1.92000000	      3.14542381	      1.62147761	    137.16932160	     -0.32027126	      0.94433215	      0.83954799	      9.15338063	     16.03017223	     -2.54552334	    -16.66030491	      9.04368033	     -9.51878161	     28.25957359	     -9.42418288	      5.03303996	    -68.05195505	      6.45827865	      4.07470103	     -7.44592112	      2.73930579	      6.57705540
      1.93000000	      3.09398175	      1.53240152	    136.00666779	     -0.32406732	      0.94453408	      0.83307228	      8.27844507	     16.14573854	     -1.33598852	    -16.32921105	      9.19275368	     -9.57001289	     29.09078887	     -9.06559361	      5.60361307	    -66.67323303	      6.86505918	      3.90933409	     -7.46265467	      2.64705979	      6.99331873
      1.94000000	      3.02922002	      1.43916308	    134.82712119	     -0.32783805	      0.94467718	      0.82661486	      7.41432468	     16.21981929	     -0.10260543	    -16.03859373	      9.36027510	     -9.64265499	     29.80975248	     -8.68575437	      6.12834772	    -65.06506676	      7.23673615	      3.86448433	     -7.49201283	      2.54877685	      7.42233827
      1.95000000	      2.95168296	      1.34164106	    133.63773962	     -0.33160818	      0.94476601	      0.82015647	      6.55584882	     16.25109702	      1.13868380	    -15.77548438	      9.54205387	     -9.73782944	     30.41317718	     -8.28496367	      6.61883198	    -63.22840214	      7.58369054	      3.97223899	     -7.52777932	      2.44369680	      7.85121012
      1.96000000	      2.86415116	      1.24668918	    132.45639119	     -0.33541167	      0.94480532	      0.81371826	      5.70141578	     16.24314550	      2.36931442	    -15.53438762	      9.73477364	     -9.85643754	     30.90091644	     -7.86632891	      7.09547105	    -61.16750558	      7.92008696	      4.26837360	     -7.57337627	      2.34419103	      8.26784880
      1.97000000	      2.75418051	      1.18184558	    131.31967889	     -0.33928519	      0.94483867	      0.80727110	      4.81338541	     16.20448679	      3.53557889	    -15.29314517	      9.90856353	    -10.02522543	     31.24392029	     -7.42212356	      7.61912643	    -58.88875522	      8.29137207	      4.87527376	     -7.65582329	      2.25312779	      8.61439315
      1.98000000	      2.69205126	      1.08428333	    130.18795441	     -0.34313902	      0.94468464	      0.80084099	      4.02616441	     16.15610191	      4.70238067	    -15.11593521	     10.16090935	    -10.13685974	     31.56117887	     -6.99790128	      8.14754306	    -56.42533592	      8.61194780	      5.57309117	     -7.67555541	      2.18494752	      8.97123790
      1.99000000	      2.63766859	      0.98467240	    129.09825955	     -0.34703312	      0.94443637	      0.79441527	      3.27437382	     16.08561451	      5.81300248	    -14.97458909	     10.44191039	    -10.20189113	     31.79258816	     -6.57081978	      8.72586265	    -53.77531040	      8.90636867	      6.39941297	     -7.68469761	      2.12847597	      9.27718984
      2.00000000	      2.59628362	      0.88146176	    128.05787191	     -0.35096182	      0.94407923	      0.78798817	      2.56666565	     16.00127464	      6.86143113	    -14.87303613	     10.76246208	    -10.22271685	     31.94822836	     -6.15160613	      9.36589518	    -50.95494215	      9.16526931	      7.31178646	     -7.67912506	      2.08584766	      9.52961170
      2.01000000	      2.57583589	      0.76813957	    127.08206263	     -0.35492407	      0.94358743	      0.78157387	      1.91989215	     15.90995868	      7.82794292	    -14.81546649	     11.13430126	    -10.21715134	     32.04910319	     -5.74565250	     10.08409982	    -47.98579599	      9.36781566	      8.29215495	     -7.64930924	      2.05905144	      9.72577095
      2.02000000	      2.55872184	      0.66097232	    126.15441981	     -0.35890911	      0.94300691	      0.77511847	      1.29868789	     15.81324274	      8.73486947	    -14.79335460	     11.48920411	    -10.20966858	     32.05532577	     -5.37100581	     10.86003992	    -44.87228937	      9.56073450	      9.17090836	     -7.61927258	      2.03890177	      9.88273528
      2.03000000	      2.56281013	      0.54750377	    125.29722037	     -0.36291169	      0.94228075	      0.76865999	      0.73882702	     15.72400740	      9.56387466	    -14.82247696	     11.87189810	    -10.23115357	     32.01494626	     -5.02988718	     11.72217228	    -41.66168401	      9.71132693	     10.07605890	     -7.56983109	      2.03560806	      9.97097791
      2.04000000	      2.57547731	      0.43896672	    124.49337042	     -0.36690808	      0.94143808	      0.76215990	      0.22456212	     15.64454645	     10.33238035	    -14.91347165	     12.23710269	    -10.28772536	     31.90506829	     -4.74517128	     12.62767693	    -38.37058116	      9.86120272	     10.86523010	     -7.51957679	      2.03913386	     10.01106788
      2.05000000	      2.59632009	      0.30870976	    123.72833059	     -0.37084621	      0.94043588	      0.75562117	     -0.20020367	     15.56602799	     11.03298889	    -15.10660388	     12.66009853	    -10.36605926	     31.76295453	     -4.52093789	     13.52595384	    -35.03928112	      9.92725248	     11.46245301	     -7.44803694	      2.02500616	     10.02496965
      2.06000000	      2.65055581	      0.23318711	    123.02002910	     -0.37478880	      0.93935518	      0.74897651	     -0.65388474	     15.54996039	     11.68749290	    -15.28615643	     12.98126067	    -10.48305207	     31.55819559	     -4.41841047	     14.42767239	    -31.73595332	     10.15692928	     12.18390145	     -7.40131800	      2.07196734	      9.99395668
      2.07000000	      2.72136343	      0.12884963	    122.32251906	     -0.37863098	      0.93809851	      0.74227884	     -1.00781825	     15.54419733	     12.29816939	    -15.57638429	     13.36489582	    -10.59482062	     31.37173749	     -4.40205314	     15.19942951	    -28.50874725	     10.31094983	     12.68176392	     -7.32425131	      2.10362233	      9.96957694
      2.08000000	      2.81079646	      0.02432859	    121.62696817	     -0.38238026	      0.93671511	      0.73549268	     -1.30973129	     15.56596386	     12.87421414	    -15.94188796	     13.76103094	    -10.69051833	     31.20320613	     -4.48515187	     15.78418157	    -25.43226237	     10.46039266	     13.05271835	     -7.23870637	      2.13927779	      9.96896852
      2.09000000	      2.91910857	     -0.09268428	    120.93199208	     -0.38604719	      0.93520652	      0.72863169	     -1.55564172	     15.61213153	     13.45578145	    -16.37514681	     14.15968140	    -10.76291898	     31.08909001	     -4.64123946	     16.12559671	    -22.58154674	     10.61534503	     13.31893186	     -7.13409541	      2.17862246	      9.95352416
      2.10000000	      3.03215162	     -0.20255810	    120.22181715	     -0.38966100	      0.93364620	      0.72165799	     -1.79896740	     15.67006696	     14.00962400	    -16.83105090	     14.54071538	    -10.81730883	     31.00800810	     -4.85208675	     16.18062008	    -20.01109545	     10.81904072	     13.53793439	     -7.03248452	      2.21778890	      9.99488008
      2.11000000	      3.14757414	     -0.33318425	    119.49903114	     -0.39323267	      0.93202238	      0.71461156	     -2.00166048	     15.72639801	     14.55670426	    -17.33628829	     14.91858081	    -10.84592128	     30.99787845	     -5.06935079	     15.95488291	    -17.77950061	     11.01285740	     13.70189601	     -6.91022916	      2.24623497	     10.04540316
      2.12000000	      3.24735446	     -0.46753567	    118.75001312	     -0.39677264	      0.93041200	      0.70746394	     -2.20785946	     15.76636512	     15.08876666	    -17.85945352	     15.26669387	    -10.84662036	     31.02870257	     -5.27146912	     15.45389138	    -15.91804787	     11.21946994	     13.85324761	     -6.79320711	      2.25374937	     10.14241505
      2.13000000	      3.34389154	     -0.62878054	    117.98803598	     -0.40031346	      0.92879976	      0.70022133	     -2.39533835	     15.78610293	     15.59573767	    -18.38663302	     15.60633420	    -10.83802080	     31.12039971	     -5.43394579	     14.77868245	    -14.43507452	     11.35471602	     13.96300807	     -6.64665526	      2.24454889	     10.27133252
      2.14000000	      3.41565786	     -0.78526981	    117.20642760	     -0.40384778	      0.92726372	      0.69286899	     -2.60096923	     15.78132164	     16.09060508	    -18.92803182	     15.88224658	    -10.80959832	     31.23532204	     -5.54989058	     13.97475338	    -13.35594289	     11.48024254	     14.05991133	     -6.51630045	      2.21358703	     10.41923949
      2.15000000	      3.47636093	     -0.94132298	    116.42489238	     -0.40739186	      0.92580721	      0.68539100	     -2.82285726	     15.75889657	     16.55798724	    -19.46137969	     16.10923606	    -10.77164758	     31.37275722	     -5.61887885	     13.18303674	    -12.65939838	     11.54126557	     14.13174106	     -6.38354889	      2.17134577	     10.58036679
